mtllib model_7.mtl
o model_7
v -14427.5546875 713.7728881835938 -4433.615234375 
v -13628.3427734375 713.7728881835938 -4262.17333984375 
v -14596.05859375 713.7728271484375 -5233.63720703125 
v -13623.3818359375 713.7728271484375 -5243.55322265625 
v -13624.5947265625 713.7728271484375 -6201.35302734375 
v -12656.87890625 713.7728271484375 -5229.88916015625 
v -12825.3828125 713.7728271484375 -6029.9111328125 
v -12828.3212890625 713.7728881835938 -4430.67724609375 
v -14424.6171875 713.7728271484375 -6032.84912109375 
vn 3.4102880241970723e-11 0.009999999776482582 -3.8123795786937364e-10 
vn 3.4102880241970723e-11 0.009999999776482582 -3.8123795786937364e-10 
vn 3.4102880241970723e-11 0.009999999776482582 -3.8123795786937364e-10 
vn 3.4102880241970723e-11 0.009999999776482582 -3.8123795786937364e-10 
vn 3.4102880241970723e-11 0.009999999776482582 -3.8123795786937364e-10 
vn 3.4102880241970723e-11 0.009999999776482582 -3.8123795786937364e-10 
vn 3.4102880241970723e-11 0.009999999776482582 -3.8123795786937364e-10 
vn 3.4102880241970723e-11 0.009999999776482582 -3.8123795786937364e-10 
vn 3.4102880241970723e-11 0.009999999776482582 -3.8123795786937364e-10 
vt 0.793379008769989 0.7969759702682495 
vt 0.8932281136512756 0.7969759702682495 
vt 0.793379008769989 0.8968251347541809 
vt 0.8932281136512756 0.8968251347541809 
vt 0.8932281136512756 0.996576726436615 
vt 0.9929797053337097 0.8968251347541809 
vt 0.9929797053337097 0.996576726436615 
vt 0.9929797053337097 0.7969759702682495 
vt 0.793379008769989 0.996576726436615 
s on 
f 1/1/1 2/2/2 3/3/3 
f 2/2/2 4/4/4 3/3/3 
f 3/3/3 4/4/4 5/5/5 
f 4/4/4 6/6/6 5/5/5 
f 5/5/5 6/6/6 7/7/7 
f 6/6/6 7/7/7 7/7/7 
f 7/7/7 7/7/7 4/4/4 
f 7/7/7 4/4/4 4/4/4 
f 4/4/4 4/4/4 4/4/4 
f 4/4/4 2/2/2 4/4/4 
f 4/4/4 2/2/2 6/6/6 
f 2/2/2 8/8/8 6/6/6 
f 5/5/5 9/9/9 3/3/3 

