mtllib model_10.mtl
o model_10
v -19372.7734375 -428.8456726074219 8329.5703125 
v -14360.2021484375 -428.8456726074219 8329.5703125 
v -19372.7734375 -428.84649658203125 3303.432373046875 
v -14360.2021484375 -428.84649658203125 3303.432373046875 
v -4283.38232421875 -428.8456726074219 8329.5703125 
v 755.0277099609375 -428.8456726074219 8329.5703125 
v -4283.38232421875 -428.84649658203125 3303.432373046875 
v 755.0277099609375 -428.84649658203125 3303.432373046875 
v -24411.185546875 -428.8481140136719 -6766.05615234375 
v -19372.7734375 -428.8481140136719 -6766.05615234375 
v -24411.185546875 -428.84893798828125 -11809.40625 
v -19372.7734375 -428.84893798828125 -11809.40625 
v -23403.501953125 -428.8505859375 -21878.89453125 
v -24411.185546875 -428.8503112792969 -20157.615234375 
v -19372.7734375 -428.8505859375 -21878.89453125 
v -19372.7734375 -428.8497619628906 -16835.54296875 
v -14360.2021484375 -428.8481140136719 -6766.05615234375 
v -19372.7734375 -428.8481140136719 -6766.05615234375 
v -14360.2021484375 -428.8473205566406 -1739.917724609375 
v -19372.7734375 -428.8473205566406 -1739.917724609375 
v -27795.962890625 -428.8481140136719 -6766.05615234375 
v -24411.185546875 -428.8481140136719 -6766.05615234375 
v -27821.80078125 -428.84820556640625 -7230.80078125 
v -27692.609375 -428.8486328125 -9812.720703125 
v -24411.185546875 -428.84893798828125 -11809.40625 
v -27408.392578125 -428.84893798828125 -11809.40625 
v -27227.525390625 -428.8473205566406 -1739.917724609375 
v -24411.185546875 -428.8473205566406 -1739.917724609375 
v -27305.0390625 -428.84735107421875 -2066.9609375 
v -27692.609375 -428.8468322753906 -4631.66796875 
v -24411.185546875 -428.8481140136719 -6766.05615234375 
v -27795.962890625 -428.8481140136719 -6766.05615234375 
v -25625.5703125 -428.84649658203125 3303.432373046875 
v -24411.185546875 -428.84649658203125 3303.432373046875 
v -25806.435546875 -428.8456115722656 2890.3251953125 
v -26684.927734375 -428.8469543457031 446.10748291015625 
v -24411.185546875 -428.8473205566406 -1739.917724609375 
v -27227.525390625 -428.8473205566406 -1739.917724609375 
v -25987.30078125 -428.8497619628906 -16835.54296875 
v -26684.927734375 -428.8494567871094 -14907.7099609375 
v -24411.185546875 -428.8497619628906 -16835.54296875 
v -24411.185546875 -428.84893798828125 -11809.40625 
v -27305.0390625 -428.8481140136719 -12394.6416015625 
v -27408.392578125 -428.84893798828125 -11809.40625 
v 15844.419921875 -428.8514099121094 -26905.029296875 
v 10806.0107421875 -428.8514099121094 -26905.029296875 
v 15844.419921875 -428.8505859375 -21878.89453125 
v 10806.0107421875 -428.8505859375 -21878.89453125 
v 755.0277099609375 -428.8514099121094 -26905.029296875 
v -4283.38232421875 -428.8514099121094 -26905.029296875 
v 755.0277099609375 -428.8505859375 -21878.89453125 
v -4283.38232421875 -428.8505859375 -21878.89453125 
v 15844.419921875 -428.8481140136719 -6766.05615234375 
v 10806.0107421875 -428.8481140136719 -6766.05615234375 
v 15844.419921875 -428.8473205566406 -1739.917724609375 
v 10806.0107421875 -428.8473205566406 -1739.917724609375 
v -4283.38232421875 -428.8505859375 -21878.89453125 
v -9321.7919921875 -428.8505859375 -21878.89453125 
v -4283.38232421875 -428.8497619628906 -16835.54296875 
v -9321.7919921875 -428.8497619628906 -16835.54296875 
v -9321.7919921875 -428.8505859375 -21878.89453125 
v -14360.2021484375 -428.8505859375 -21878.89453125 
v -9321.7919921875 -428.8497619628906 -16835.54296875 
v -14360.2021484375 -428.8497619628906 -16835.54296875 
v -14360.2021484375 -428.8505859375 -21878.89453125 
v -19372.7734375 -428.8505859375 -21878.89453125 
v -14360.2021484375 -428.8497619628906 -16835.54296875 
v -19372.7734375 -428.8497619628906 -16835.54296875 
v 10806.0107421875 -428.8505859375 -21878.89453125 
v 5793.4384765625 -428.8505859375 -21878.89453125 
v 10806.0107421875 -428.8497619628906 -16835.54296875 
v 5793.4384765625 -428.8497619628906 -16835.54296875 
v 23234.087890625 -428.8497619628906 -16835.54296875 
v 20882.830078125 -428.8497619628906 -16835.54296875 
v 23931.712890625 -428.8494567871094 -14907.7099609375 
v 20882.830078125 -428.84893798828125 -11809.40625 
v 24551.82421875 -428.8481140136719 -12394.6416015625 
v 24655.1796875 -428.84893798828125 -11809.40625 
v 15844.419921875 -428.8505859375 -21878.89453125 
v 10806.0107421875 -428.8505859375 -21878.89453125 
v 15844.419921875 -428.8497619628906 -16835.54296875 
v 10806.0107421875 -428.8497619628906 -16835.54296875 
v 5793.4384765625 -428.8497619628906 -16835.54296875 
v 755.0277099609375 -428.8497619628906 -16835.54296875 
v 5793.4384765625 -428.84893798828125 -11809.40625 
v 755.0277099609375 -428.84893798828125 -11809.40625 
v -9321.7919921875 -428.8497619628906 -16835.54296875 
v -14360.2021484375 -428.8497619628906 -16835.54296875 
v -9321.7919921875 -428.84893798828125 -11809.40625 
v -14360.2021484375 -428.84893798828125 -11809.40625 
v 24655.1796875 -428.84893798828125 -11809.40625 
v 20882.830078125 -428.84893798828125 -11809.40625 
v 24939.39453125 -428.8486328125 -9812.720703125 
v 20882.830078125 -428.8481140136719 -6766.05615234375 
v 25068.5859375 -428.84820556640625 -7230.80078125 
v 25042.748046875 -428.8481140136719 -6766.05615234375 
v 20882.830078125 -428.84893798828125 -11809.40625 
v 15844.419921875 -428.84893798828125 -11809.40625 
v 20882.830078125 -428.8481140136719 -6766.05615234375 
v 15844.419921875 -428.8481140136719 -6766.05615234375 
v 15844.419921875 -428.84893798828125 -11809.40625 
v 10806.0107421875 -428.84893798828125 -11809.40625 
v 15844.419921875 -428.8481140136719 -6766.05615234375 
v 10806.0107421875 -428.8481140136719 -6766.05615234375 
v -14360.2021484375 -428.84893798828125 -11809.40625 
v -19372.7734375 -428.84893798828125 -11809.40625 
v -14360.2021484375 -428.8481140136719 -6766.05615234375 
v -19372.7734375 -428.8481140136719 -6766.05615234375 
v 23234.087890625 -428.8497619628906 -16835.54296875 
v 23053.22265625 -428.849853515625 -17351.927734375 
v 20882.830078125 -428.8497619628906 -16835.54296875 
v 21942.1875 -428.8492736816406 -19692.869140625 
v 21554.6171875 -428.850341796875 -20346.955078125 
v -19372.7734375 -428.8497619628906 -16835.54296875 
v -24411.185546875 -428.8497619628906 -16835.54296875 
v -19372.7734375 -428.84893798828125 -11809.40625 
v -24411.185546875 -428.84893798828125 -11809.40625 
v -4283.38232421875 -428.8473205566406 -1739.917724609375 
v -9321.7919921875 -428.8473205566406 -1739.917724609375 
v -4283.38232421875 -428.84649658203125 3303.432373046875 
v -9321.7919921875 -428.84649658203125 3303.432373046875 
v 5793.4384765625 -428.84649658203125 3303.432373046875 
v 755.0277099609375 -428.84649658203125 3303.432373046875 
v 5793.4384765625 -428.8456726074219 8329.5703125 
v 755.0277099609375 -428.8456726074219 8329.5703125 
v -4283.38232421875 -428.84649658203125 3303.432373046875 
v -9321.7919921875 -428.84649658203125 3303.432373046875 
v -4283.38232421875 -428.8456726074219 8329.5703125 
v -9321.7919921875 -428.8456726074219 8329.5703125 
v -4283.38232421875 -428.8514099121094 -26905.029296875 
v -9321.7919921875 -428.8514099121094 -26905.029296875 
v -4283.38232421875 -428.8505859375 -21878.89453125 
v -9321.7919921875 -428.8505859375 -21878.89453125 
v -9321.7919921875 -428.8514099121094 -26905.029296875 
v -14360.2021484375 -428.8514099121094 -26905.029296875 
v -9321.7919921875 -428.8505859375 -21878.89453125 
v -14360.2021484375 -428.8505859375 -21878.89453125 
v -24411.185546875 -428.8473205566406 -1739.917724609375 
v -19372.7734375 -428.8473205566406 -1739.917724609375 
v -24411.185546875 -428.8481140136719 -6766.05615234375 
v -19372.7734375 -428.8481140136719 -6766.05615234375 
v 5793.4384765625 -428.8505859375 -21878.89453125 
v 10806.0107421875 -428.8505859375 -21878.89453125 
v 5793.4384765625 -428.8514099121094 -26905.029296875 
v 10806.0107421875 -428.8514099121094 -26905.029296875 
v 755.0277099609375 -428.8505859375 -21878.89453125 
v 5793.4384765625 -428.8505859375 -21878.89453125 
v 755.0277099609375 -428.8514099121094 -26905.029296875 
v 5793.4384765625 -428.8514099121094 -26905.029296875 
v 10806.0107421875 -428.8497619628906 -16835.54296875 
v 5793.4384765625 -428.8497619628906 -16835.54296875 
v 10806.0107421875 -428.84893798828125 -11809.40625 
v 5793.4384765625 -428.84893798828125 -11809.40625 
v -14360.2021484375 -428.84649658203125 3303.432373046875 
v -9321.7919921875 -428.84649658203125 3303.432373046875 
v -14360.2021484375 -428.8473205566406 -1739.917724609375 
v -9321.7919921875 -428.8473205566406 -1739.917724609375 
v 20882.830078125 -428.8497619628906 -16835.54296875 
v 15844.419921875 -428.8497619628906 -16835.54296875 
v 20882.830078125 -428.84893798828125 -11809.40625 
v 15844.419921875 -428.84893798828125 -11809.40625 
v -4283.38232421875 -428.8497619628906 -16835.54296875 
v 755.0277099609375 -428.8497619628906 -16835.54296875 
v -4283.38232421875 -428.8505859375 -21878.89453125 
v 755.0277099609375 -428.8505859375 -21878.89453125 
v -19372.7734375 -428.8473205566406 -1739.917724609375 
v -24411.185546875 -428.8473205566406 -1739.917724609375 
v -19372.7734375 -428.84649658203125 3303.432373046875 
v -24411.185546875 -428.84649658203125 3303.432373046875 
v 10806.0107421875 -428.8473205566406 -1739.917724609375 
v 5793.4384765625 -428.8473205566406 -1739.917724609375 
v 10806.0107421875 -428.84649658203125 3303.432373046875 
v 5793.4384765625 -428.84649658203125 3303.432373046875 
v 10806.0107421875 -428.84893798828125 -11809.40625 
v 15844.419921875 -428.84893798828125 -11809.40625 
v 10806.0107421875 -428.8497619628906 -16835.54296875 
v 15844.419921875 -428.8497619628906 -16835.54296875 
v -14360.2021484375 -428.8456726074219 8329.5703125 
v -9321.7919921875 -428.8456726074219 8329.5703125 
v -14360.2021484375 -428.84649658203125 3303.432373046875 
v -9321.7919921875 -428.84649658203125 3303.432373046875 
v -9321.7919921875 -428.84893798828125 -11809.40625 
v -4283.38232421875 -428.84893798828125 -11809.40625 
v -9321.7919921875 -428.8497619628906 -16835.54296875 
v -4283.38232421875 -428.8497619628906 -16835.54296875 
v 755.0277099609375 -428.8497619628906 -16835.54296875 
v -4283.38232421875 -428.8497619628906 -16835.54296875 
v 755.0277099609375 -428.84893798828125 -11809.40625 
v -4283.38232421875 -428.84893798828125 -11809.40625 
v -14360.2021484375 -428.8473205566406 -1739.917724609375 
v -19372.7734375 -428.8473205566406 -1739.917724609375 
v -14360.2021484375 -428.84649658203125 3303.432373046875 
v -19372.7734375 -428.84649658203125 3303.432373046875 
v 5793.4384765625 -428.8505859375 -21878.89453125 
v 755.0277099609375 -428.8505859375 -21878.89453125 
v 5793.4384765625 -428.8497619628906 -16835.54296875 
v 755.0277099609375 -428.8497619628906 -16835.54296875 
v -19372.7734375 -428.84893798828125 -11809.40625 
v -14360.2021484375 -428.84893798828125 -11809.40625 
v -19372.7734375 -428.8497619628906 -16835.54296875 
v -14360.2021484375 -428.8497619628906 -16835.54296875 
v 10806.0107421875 -428.8481140136719 -6766.05615234375 
v 5793.4384765625 -428.8481140136719 -6766.05615234375 
v 10806.0107421875 -428.8473205566406 -1739.917724609375 
v 5793.4384765625 -428.8473205566406 -1739.917724609375 
v 10806.0107421875 -428.84649658203125 3303.432373046875 
v 5793.4384765625 -428.84649658203125 3303.432373046875 
v 10806.0107421875 -428.8456726074219 8329.5703125 
v 5793.4384765625 -428.8456726074219 8329.5703125 
v 5793.4384765625 -428.8481140136719 -6766.05615234375 
v 10806.0107421875 -428.8481140136719 -6766.05615234375 
v 5793.4384765625 -428.84893798828125 -11809.40625 
v 10806.0107421875 -428.84893798828125 -11809.40625 
v 20650.287109375 -428.8505859375 -21878.89453125 
v 15844.419921875 -428.8505859375 -21878.89453125 
v 20882.830078125 -428.85052490234375 -21465.787109375 
v 15844.419921875 -428.8497619628906 -16835.54296875 
v 20882.830078125 -428.8497619628906 -16835.54296875 
v -24411.185546875 -428.8497619628906 -16835.54296875 
v 20882.830078125 -428.85052490234375 -21465.787109375 
vn 0 0.009999999776482582 -1.629209989140179e-9 
vn 0 0.009999999776482582 -1.629209989140179e-9 
vn 0 0.009999999776482582 -1.629209989140179e-9 
vn 0 0.009999999776482582 -1.629209989140179e-9 
vn 0 0.009999999776482582 -1.629209989140179e-9 
vn 0 0.009999999776482582 -1.629209989140179e-9 
vn 0 0.009999999776482582 -1.629209989140179e-9 
vn 0 0.009999999776482582 -1.629209989140179e-9 
vn 0 0.009999999776482582 -1.629209989140179e-9 
vn 0 0.009999999776482582 -1.629209989140179e-9 
vn 0 0.009999999776482582 -1.629209989140179e-9 
vn 0 0.009999999776482582 -1.629209989140179e-9 
vn 0 0.009999999776482582 -1.629209989140179e-9 
vn 0 0.009999999776482582 -1.629209989140179e-9 
vn 0 0.009999999776482582 -1.629209989140179e-9 
vn 0 0.009999999776482582 -1.629209989140179e-9 
vn 0 0.009999999776482582 -1.629209989140179e-9 
vn 0 0.009999999776482582 -1.629209989140179e-9 
vn 0 0.009999999776482582 -1.629209989140179e-9 
vn 0 0.009999999776482582 -1.629209989140179e-9 
vn 0 0.009999999776482582 -1.629209989140179e-9 
vn 0 0.009999999776482582 -1.629209989140179e-9 
vn 0 0.009999999776482582 -1.629209989140179e-9 
vn 0 0.009999999776482582 -1.629209989140179e-9 
vn 0 0.009999999776482582 -1.629209989140179e-9 
vn 0 0.009999999776482582 -1.629209989140179e-9 
vn 0 0.009999999776482582 -1.629209989140179e-9 
vn 0 0.009999999776482582 -1.629209989140179e-9 
vn 0 0.009999999776482582 -1.629209989140179e-9 
vn 0 0.009999999776482582 -1.629209989140179e-9 
vn 0 0.009999999776482582 -1.629209989140179e-9 
vn 0 0.009999999776482582 -1.629209989140179e-9 
vn 0 0.009999999776482582 -1.629209989140179e-9 
vn 0 0.009999999776482582 -1.629209989140179e-9 
vn 0 0.009999999776482582 -1.629209989140179e-9 
vn 0 0.009999999776482582 -1.629209989140179e-9 
vn 0 0.009999999776482582 -1.629209989140179e-9 
vn 0 0.009999999776482582 -1.629209989140179e-9 
vn 0 0.009999999776482582 -1.629209989140179e-9 
vn 0 0.009999999776482582 -1.629209989140179e-9 
vn 0 0.009999999776482582 -1.629209989140179e-9 
vn 0 0.009999999776482582 -1.629209989140179e-9 
vn 0 0.009999999776482582 -1.629209989140179e-9 
vn 0 0.009999999776482582 -1.629209989140179e-9 
vn 0 0.009999999776482582 -1.629209989140179e-9 
vn 0 0.009999999776482582 -1.629209989140179e-9 
vn 0 0.009999999776482582 -1.629209989140179e-9 
vn 0 0.009999999776482582 -1.629209989140179e-9 
vn 0 0.009999999776482582 -1.629209989140179e-9 
vn 0 0.009999999776482582 -1.629209989140179e-9 
vn 0 0.009999999776482582 -1.629209989140179e-9 
vn 0 0.009999999776482582 -1.629209989140179e-9 
vn 0 0.009999999776482582 -1.629209989140179e-9 
vn 0 0.009999999776482582 -1.629209989140179e-9 
vn 0 0.009999999776482582 -1.629209989140179e-9 
vn 0 0.009999999776482582 -1.629209989140179e-9 
vn 0 0.009999999776482582 -1.629209989140179e-9 
vn 0 0.009999999776482582 -1.629209989140179e-9 
vn 0 0.009999999776482582 -1.629209989140179e-9 
vn 0 0.009999999776482582 -1.629209989140179e-9 
vn 0 0.009999999776482582 -1.629209989140179e-9 
vn 0 0.009999999776482582 -1.629209989140179e-9 
vn 0 0.009999999776482582 -1.629209989140179e-9 
vn 0 0.009999999776482582 -1.629209989140179e-9 
vn 0 0.009999999776482582 -1.629209989140179e-9 
vn 0 0.009999999776482582 -1.629209989140179e-9 
vn 0 0.009999999776482582 -1.629209989140179e-9 
vn 0 0.009999999776482582 -1.629209989140179e-9 
vn 0 0.009999999776482582 -1.629209989140179e-9 
vn 0 0.009999999776482582 -1.629209989140179e-9 
vn 0 0.009999999776482582 -1.629209989140179e-9 
vn 0 0.009999999776482582 -1.629209989140179e-9 
vn 0 0.009999999776482582 -1.629209989140179e-9 
vn 0 0.009999999776482582 -1.629209989140179e-9 
vn 0 0.009999999776482582 -1.629209989140179e-9 
vn 0 0.009999999776482582 -1.629209989140179e-9 
vn 0 0.009999999776482582 -1.629209989140179e-9 
vn 0 0.009999999776482582 -1.629209989140179e-9 
vn 0 0.009999999776482582 -1.629209989140179e-9 
vn 0 0.009999999776482582 -1.629209989140179e-9 
vn 0 0.009999999776482582 -1.629209989140179e-9 
vn 0 0.009999999776482582 -1.629209989140179e-9 
vn 0 0.009999999776482582 -1.629209989140179e-9 
vn 0 0.009999999776482582 -1.629209989140179e-9 
vn 0 0.009999999776482582 -1.629209989140179e-9 
vn 0 0.009999999776482582 -1.629209989140179e-9 
vn 0 0.009999999776482582 -1.629209989140179e-9 
vn 0 0.009999999776482582 -1.629209989140179e-9 
vn 0 0.009999999776482582 -1.629209989140179e-9 
vn 0 0.009999999776482582 -1.629209989140179e-9 
vn 0 0.009999999776482582 -1.629209989140179e-9 
vn 0 0.009999999776482582 -1.629209989140179e-9 
vn 0 0.009999999776482582 -1.629209989140179e-9 
vn 0 0.009999999776482582 -1.629209989140179e-9 
vn 0 0.009999999776482582 -1.629209989140179e-9 
vn 0 0.009999999776482582 -1.629209989140179e-9 
vn 0 0.009999999776482582 -1.629209989140179e-9 
vn 0 0.009999999776482582 -1.629209989140179e-9 
vn 0 0.009999999776482582 -1.629209989140179e-9 
vn 0 0.009999999776482582 -1.629209989140179e-9 
vn 0 0.009999999776482582 -1.629209989140179e-9 
vn 0 0.009999999776482582 -1.629209989140179e-9 
vn 0 0.009999999776482582 -1.629209989140179e-9 
vn 0 0.009999999776482582 -1.629209989140179e-9 
vn 0 0.009999999776482582 -1.629209989140179e-9 
vn 0 0.009999999776482582 -1.629209989140179e-9 
vn 0 0.009999999776482582 -1.629209989140179e-9 
vn 0 0.009999999776482582 -1.629209989140179e-9 
vn 0 0.009999999776482582 -1.629209989140179e-9 
vn 0 0.009999999776482582 -1.629209989140179e-9 
vn 0 0.009999999776482582 -1.629209989140179e-9 
vn 0 0.009999999776482582 -1.629209989140179e-9 
vn 0 0.009999999776482582 -1.629209989140179e-9 
vn 0 0.009999999776482582 -1.629209989140179e-9 
vn 0 0.009999999776482582 -1.629209989140179e-9 
vn 0 0.009999999776482582 -1.629209989140179e-9 
vn 0 0.009999999776482582 -1.629209989140179e-9 
vn 0 0.009999999776482582 -1.629209989140179e-9 
vn 0 0.009999999776482582 -1.629209989140179e-9 
vn 0 0.009999999776482582 -1.629209989140179e-9 
vn 0 0.009999999776482582 -1.629209989140179e-9 
vn 0 0.009999999776482582 -1.629209989140179e-9 
vn 0 0.009999999776482582 -1.629209989140179e-9 
vn 0 0.009999999776482582 -1.629209989140179e-9 
vn 0 0.009999999776482582 -1.629209989140179e-9 
vn 0 0.009999999776482582 -1.629209989140179e-9 
vn 0 0.009999999776482582 -1.629209989140179e-9 
vn 0 0.009999999776482582 -1.629209989140179e-9 
vn 0 0.009999999776482582 -1.629209989140179e-9 
vn 0 0.009999999776482582 -1.629209989140179e-9 
vn 0 0.009999999776482582 -1.629209989140179e-9 
vn 0 0.009999999776482582 -1.629209989140179e-9 
vn 0 0.009999999776482582 -1.629209989140179e-9 
vn 0 0.009999999776482582 -1.629209989140179e-9 
vn 0 0.009999999776482582 -1.629209989140179e-9 
vn 0 0.009999999776482582 -1.629209989140179e-9 
vn 0 0.009999999776482582 -1.629209989140179e-9 
vn 0 0.009999999776482582 -1.629209989140179e-9 
vn 0 0.009999999776482582 -1.629209989140179e-9 
vn 0 0.009999999776482582 -1.629209989140179e-9 
vn 0 0.009999999776482582 -1.629209989140179e-9 
vn 0 0.009999999776482582 -1.629209989140179e-9 
vn 0 0.009999999776482582 -1.629209989140179e-9 
vn 0 0.009999999776482582 -1.629209989140179e-9 
vn 0 0.009999999776482582 -1.629209989140179e-9 
vn 0 0.009999999776482582 -1.629209989140179e-9 
vn 0 0.009999999776482582 -1.629209989140179e-9 
vn 0 0.009999999776482582 -1.629209989140179e-9 
vn 0 0.009999999776482582 -1.629209989140179e-9 
vn 0 0.009999999776482582 -1.629209989140179e-9 
vn 0 0.009999999776482582 -1.629209989140179e-9 
vn 0 0.009999999776482582 -1.629209989140179e-9 
vn 0 0.009999999776482582 -1.629209989140179e-9 
vn 0 0.009999999776482582 -1.629209989140179e-9 
vn 0 0.009999999776482582 -1.629209989140179e-9 
vn 0 0.009999999776482582 -1.629209989140179e-9 
vn 0 0.009999999776482582 -1.629209989140179e-9 
vn 0 0.009999999776482582 -1.629209989140179e-9 
vn 0 0.009999999776482582 -1.629209989140179e-9 
vn 0 0.009999999776482582 -1.629209989140179e-9 
vn 0 0.009999999776482582 -1.629209989140179e-9 
vn 0 0.009999999776482582 -1.629209989140179e-9 
vn 0 0.009999999776482582 -1.629209989140179e-9 
vn 0 0.009999999776482582 -1.629209989140179e-9 
vn 0 0.009999999776482582 -1.629209989140179e-9 
vn 0 0.009999999776482582 -1.629209989140179e-9 
vn 0 0.009999999776482582 -1.629209989140179e-9 
vn 0 0.009999999776482582 -1.629209989140179e-9 
vn 0 0.009999999776482582 -1.629209989140179e-9 
vn 0 0.009999999776482582 -1.629209989140179e-9 
vn 0 0.009999999776482582 -1.629209989140179e-9 
vn 0 0.009999999776482582 -1.629209989140179e-9 
vn 0 0.009999999776482582 -1.629209989140179e-9 
vn 0 0.009999999776482582 -1.629209989140179e-9 
vn 0 0.009999999776482582 -1.629209989140179e-9 
vn 0 0.009999999776482582 -1.629209989140179e-9 
vn 0 0.009999999776482582 -1.629209989140179e-9 
vn 0 0.009999999776482582 -1.629209989140179e-9 
vn 0 0.009999999776482582 -1.629209989140179e-9 
vn 0 0.009999999776482582 -1.629209989140179e-9 
vn 0 0.009999999776482582 -1.629209989140179e-9 
vn 0 0.009999999776482582 -1.629209989140179e-9 
vn 0 0.009999999776482582 -1.629209989140179e-9 
vn 0 0.009999999776482582 -1.629209989140179e-9 
vn 0 0.009999999776482582 -1.629209989140179e-9 
vn 0 0.009999999776482582 -1.629209989140179e-9 
vn 0 0.009999999776482582 -1.629209989140179e-9 
vn 0 0.009999999776482582 -1.629209989140179e-9 
vn 0 0.009999999776482582 -1.629209989140179e-9 
vn 0 0.009999999776482582 -1.629209989140179e-9 
vn 0 0.009999999776482582 -1.629209989140179e-9 
vn 0 0.009999999776482582 -1.629209989140179e-9 
vn 0 0.009999999776482582 -1.629209989140179e-9 
vn 0 0.009999999776482582 -1.629209989140179e-9 
vn 0 0.009999999776482582 -1.629209989140179e-9 
vn 0 0.009999999776482582 -1.629209989140179e-9 
vn 0 0.009999999776482582 -1.629209989140179e-9 
vn 0 0.009999999776482582 -1.629209989140179e-9 
vn 0 0.009999999776482582 -1.629209989140179e-9 
vn 0 0.009999999776482582 -1.629209989140179e-9 
vn 0 0.009999999776482582 -1.629209989140179e-9 
vn 0 0.009999999776482582 -1.629209989140179e-9 
vn 0 0.009999999776482582 -1.629209989140179e-9 
vn 0 0.009999999776482582 -1.629209989140179e-9 
vn 0 0.009999999776482582 -1.629209989140179e-9 
vn 0 0.009999999776482582 -1.629209989140179e-9 
vn 0 0.009999999776482582 -1.629209989140179e-9 
vn 0 0.009999999776482582 -1.629209989140179e-9 
vn 0 0.009999999776482582 -1.629209989140179e-9 
vn 0 0.009999999776482582 -1.629209989140179e-9 
vn 0 0.009999999776482582 -1.629209989140179e-9 
vn 0 0.009999999776482582 -1.629209989140179e-9 
vn 0 0.009999999776482582 -1.629209989140179e-9 
vn 0 0.009999999776482582 -1.629209989140179e-9 
vn 0 0.009999999776482582 -1.629209989140179e-9 
vn 0 0.009999999776482582 -1.629209989140179e-9 
vn 0 0.009999999776482582 -1.629209989140179e-9 
vn 0 0.009999999776482582 -1.629209989140179e-9 
vn 0 0.009999999776482582 -1.629209989140179e-9 
vn 0 0.009999999776482582 -1.629209989140179e-9 
vt 0.7936639785766602 0.3866859972476959 
vt 0.99326491355896 0.3866859972476959 
vt 0.7936639785766602 0.586286723613739 
vt 0.99326491355896 0.586286723613739 
vt 0.7936639785766602 0.3866859972476959 
vt 0.99326491355896 0.3866859972476959 
vt 0.7936639785766602 0.586286723613739 
vt 0.99326491355896 0.586286723613739 
vt 0.7936639785766602 0.3866859972476959 
vt 0.99326491355896 0.3866859972476959 
vt 0.7936639785766602 0.586286723613739 
vt 0.99326491355896 0.586286723613739 
vt 0.8342277407646179 0.586286723613739 
vt 0.7936639785766602 0.5186155438423157 
vt 0.99326491355896 0.586286723613739 
vt 0.99326491355896 0.3866859972476959 
vt 0.99326491355896 0.586286723613739 
vt 0.7936639785766602 0.586286723613739 
vt 0.99326491355896 0.3866859972476959 
vt 0.7936639785766602 0.3866859972476959 
vt 0.8590925335884094 0.3866859972476959 
vt 0.99326491355896 0.3866859972476959 
vt 0.8582149744033813 0.4047251343727112 
vt 0.8632854223251343 0.507597029209137 
vt 0.99326491355896 0.586286723613739 
vt 0.8749865293502808 0.586286723613739 
vt 0.8816171288490295 0.3866859972476959 
vt 0.99326491355896 0.3866859972476959 
vt 0.8783993124961853 0.3997521996498108 
vt 0.8632854223251343 0.5015515089035034 
vt 0.99326491355896 0.586286723613739 
vt 0.8590925335884094 0.586286723613739 
vt 0.9455830454826355 0.3866859972476959 
vt 0.99326491355896 0.3866859972476959 
vt 0.9380748271942139 0.402677446603775 
vt 0.9033616185188293 0.4996013045310974 
vt 0.99326491355896 0.586286723613739 
vt 0.8816171288490295 0.586286723613739 
vt 0.9308591485023499 0.586286723613739 
vt 0.9033616185188293 0.509547233581543 
vt 0.99326491355896 0.586286723613739 
vt 0.99326491355896 0.3866859972476959 
vt 0.8783993124961853 0.4097956120967865 
vt 0.8749865293502808 0.3866859972476959 
vt 0.99326491355896 0.586286723613739 
vt 0.7936639785766602 0.586286723613739 
vt 0.99326491355896 0.3866859972476959 
vt 0.7936639785766602 0.3866859972476959 
vt 0.99326491355896 0.586286723613739 
vt 0.7936639785766602 0.586286723613739 
vt 0.99326491355896 0.3866859972476959 
vt 0.7936639785766602 0.3866859972476959 
vt 0.99326491355896 0.586286723613739 
vt 0.7936639785766602 0.586286723613739 
vt 0.99326491355896 0.3866859972476959 
vt 0.7936639785766602 0.3866859972476959 
vt 0.99326491355896 0.586286723613739 
vt 0.7936639785766602 0.586286723613739 
vt 0.99326491355896 0.3866859972476959 
vt 0.7936639785766602 0.3866859972476959 
vt 0.99326491355896 0.586286723613739 
vt 0.7936639785766602 0.586286723613739 
vt 0.99326491355896 0.3866859972476959 
vt 0.7936639785766602 0.3866859972476959 
vt 0.99326491355896 0.586286723613739 
vt 0.7936639785766602 0.586286723613739 
vt 0.99326491355896 0.3866859972476959 
vt 0.7936639785766602 0.3866859972476959 
vt 0.99326491355896 0.586286723613739 
vt 0.7936639785766602 0.586286723613739 
vt 0.99326491355896 0.3866859972476959 
vt 0.7936639785766602 0.3866859972476959 
vt 0.8869801163673401 0.586286723613739 
vt 0.7936639785766602 0.586286723613739 
vt 0.9143801331520081 0.509547233581543 
vt 0.7936639785766602 0.3866859972476959 
vt 0.9394399523735046 0.4097956120967865 
vt 0.942852795124054 0.3866859972476959 
vt 0.99326491355896 0.586286723613739 
vt 0.7936639785766602 0.586286723613739 
vt 0.99326491355896 0.3866859972476959 
vt 0.7936639785766602 0.3866859972476959 
vt 0.99326491355896 0.586286723613739 
vt 0.7936639785766602 0.586286723613739 
vt 0.99326491355896 0.3866859972476959 
vt 0.7936639785766602 0.3866859972476959 
vt 0.99326491355896 0.586286723613739 
vt 0.7936639785766602 0.586286723613739 
vt 0.99326491355896 0.3866859972476959 
vt 0.7936639785766602 0.3866859972476959 
vt 0.942852795124054 0.586286723613739 
vt 0.7936639785766602 0.586286723613739 
vt 0.9544563293457031 0.507597029209137 
vt 0.7936639785766602 0.3866859972476959 
vt 0.9595268368721008 0.4047251343727112 
vt 0.958649218082428 0.3866859972476959 
vt 0.99326491355896 0.586286723613739 
vt 0.7936639785766602 0.586286723613739 
vt 0.99326491355896 0.3866859972476959 
vt 0.7936639785766602 0.3866859972476959 
vt 0.99326491355896 0.586286723613739 
vt 0.7936639785766602 0.586286723613739 
vt 0.99326491355896 0.3866859972476959 
vt 0.7936639785766602 0.3866859972476959 
vt 0.99326491355896 0.586286723613739 
vt 0.7936639785766602 0.586286723613739 
vt 0.99326491355896 0.3866859972476959 
vt 0.7936639785766602 0.3866859972476959 
vt 0.8869801163673401 0.3866859972476959 
vt 0.8797644376754761 0.4068703353404999 
vt 0.7936639785766602 0.3866859972476959 
vt 0.8356903791427612 0.49989384412765503 
vt 0.8203814625740051 0.5255386829376221 
vt 0.99326491355896 0.586286723613739 
vt 0.7936639785766602 0.586286723613739 
vt 0.99326491355896 0.3866859972476959 
vt 0.7936639785766602 0.3866859972476959 
vt 0.99326491355896 0.586286723613739 
vt 0.7936639785766602 0.586286723613739 
vt 0.99326491355896 0.3866859972476959 
vt 0.7936639785766602 0.3866859972476959 
vt 0.99326491355896 0.586286723613739 
vt 0.7936639785766602 0.586286723613739 
vt 0.99326491355896 0.3866859972476959 
vt 0.7936639785766602 0.3866859972476959 
vt 0.99326491355896 0.586286723613739 
vt 0.7936639785766602 0.586286723613739 
vt 0.99326491355896 0.3866859972476959 
vt 0.7936639785766602 0.3866859972476959 
vt 0.99326491355896 0.586286723613739 
vt 0.7936639785766602 0.586286723613739 
vt 0.99326491355896 0.3866859972476959 
vt 0.7936639785766602 0.3866859972476959 
vt 0.99326491355896 0.586286723613739 
vt 0.7936639785766602 0.586286723613739 
vt 0.99326491355896 0.3866859972476959 
vt 0.7936639785766602 0.3866859972476959 
vt 0.7936639785766602 0.3866859972476959 
vt 0.99326491355896 0.3866859972476959 
vt 0.7936639785766602 0.586286723613739 
vt 0.99326491355896 0.586286723613739 
vt 0.7936639785766602 0.3866859972476959 
vt 0.99326491355896 0.3866859972476959 
vt 0.7936639785766602 0.586286723613739 
vt 0.99326491355896 0.586286723613739 
vt 0.7936639785766602 0.3866859972476959 
vt 0.99326491355896 0.3866859972476959 
vt 0.7936639785766602 0.586286723613739 
vt 0.99326491355896 0.586286723613739 
vt 0.99326491355896 0.586286723613739 
vt 0.7936639785766602 0.586286723613739 
vt 0.99326491355896 0.3866859972476959 
vt 0.7936639785766602 0.3866859972476959 
vt 0.7936639785766602 0.3866859972476959 
vt 0.99326491355896 0.3866859972476959 
vt 0.7936639785766602 0.586286723613739 
vt 0.99326491355896 0.586286723613739 
vt 0.99326491355896 0.586286723613739 
vt 0.7936639785766602 0.586286723613739 
vt 0.99326491355896 0.3866859972476959 
vt 0.7936639785766602 0.3866859972476959 
vt 0.7936639785766602 0.3866859972476959 
vt 0.99326491355896 0.3866859972476959 
vt 0.7936639785766602 0.586286723613739 
vt 0.99326491355896 0.586286723613739 
vt 0.99326491355896 0.586286723613739 
vt 0.7936639785766602 0.586286723613739 
vt 0.99326491355896 0.3866859972476959 
vt 0.7936639785766602 0.3866859972476959 
vt 0.99326491355896 0.586286723613739 
vt 0.7936639785766602 0.586286723613739 
vt 0.99326491355896 0.3866859972476959 
vt 0.7936639785766602 0.3866859972476959 
vt 0.7936639785766602 0.3866859972476959 
vt 0.99326491355896 0.3866859972476959 
vt 0.7936639785766602 0.586286723613739 
vt 0.99326491355896 0.586286723613739 
vt 0.7936639785766602 0.3866859972476959 
vt 0.99326491355896 0.3866859972476959 
vt 0.7936639785766602 0.586286723613739 
vt 0.99326491355896 0.586286723613739 
vt 0.7936639785766602 0.3866859972476959 
vt 0.99326491355896 0.3866859972476959 
vt 0.7936639785766602 0.586286723613739 
vt 0.99326491355896 0.586286723613739 
vt 0.99326491355896 0.586286723613739 
vt 0.7936639785766602 0.586286723613739 
vt 0.99326491355896 0.3866859972476959 
vt 0.7936639785766602 0.3866859972476959 
vt 0.99326491355896 0.586286723613739 
vt 0.7936639785766602 0.586286723613739 
vt 0.99326491355896 0.3866859972476959 
vt 0.7936639785766602 0.3866859972476959 
vt 0.99326491355896 0.586286723613739 
vt 0.7936639785766602 0.586286723613739 
vt 0.99326491355896 0.3866859972476959 
vt 0.7936639785766602 0.3866859972476959 
vt 0.7936639785766602 0.3866859972476959 
vt 0.99326491355896 0.3866859972476959 
vt 0.7936639785766602 0.586286723613739 
vt 0.99326491355896 0.586286723613739 
vt 0.99326491355896 0.586286723613739 
vt 0.7936639785766602 0.586286723613739 
vt 0.99326491355896 0.3866859972476959 
vt 0.7936639785766602 0.3866859972476959 
vt 0.99326491355896 0.586286723613739 
vt 0.7936639785766602 0.586286723613739 
vt 0.99326491355896 0.3866859972476959 
vt 0.7936639785766602 0.3866859972476959 
vt 0.7936639785766602 0.3866859972476959 
vt 0.99326491355896 0.3866859972476959 
vt 0.7936639785766602 0.586286723613739 
vt 0.99326491355896 0.586286723613739 
vt 0.9835140109062195 0.586286723613739 
vt 0.7936639785766602 0.586286723613739 
vt 0.99326491355896 0.5701002478599548 
vt 0.7936639785766602 0.3866859972476959 
vt 0.99326491355896 0.3866859972476959 
vt 0.7936639785766602 0.3866859972476959 
vt 0.7936639785766602 0.5701002478599548 
s on 
f 1/1/1 2/2/2 3/3/3 
f 2/2/2 4/4/4 3/3/3 
f 3/3/3 4/4/4 4/4/4 
f 4/4/4 5/5/5 4/4/4 
f 4/4/4 5/5/5 5/5/5 
f 5/5/5 6/6/6 5/5/5 
f 5/5/5 6/6/6 7/7/7 
f 6/6/6 8/8/8 7/7/7 
f 7/7/7 8/8/8 8/8/8 
f 8/8/8 9/9/9 8/8/8 
f 8/8/8 9/9/9 9/9/9 
f 9/9/9 10/10/10 9/9/9 
f 9/9/9 10/10/10 11/11/11 
f 10/10/10 12/12/12 11/11/11 
f 11/11/11 12/12/12 12/12/12 
f 12/12/12 13/13/13 12/12/12 
f 12/12/12 13/13/13 13/13/13 
f 13/13/13 14/14/14 13/13/13 
f 13/13/13 14/14/14 15/15/15 
f 14/14/14 16/16/16 15/15/15 
f 15/15/15 16/16/16 16/16/16 
f 16/16/16 17/17/17 16/16/16 
f 16/16/16 17/17/17 17/17/17 
f 17/17/17 18/18/18 17/17/17 
f 17/17/17 18/18/18 19/19/19 
f 18/18/18 20/20/20 19/19/19 
f 19/19/19 20/20/20 20/20/20 
f 20/20/20 21/21/21 20/20/20 
f 20/20/20 21/21/21 21/21/21 
f 21/21/21 22/22/22 21/21/21 
f 21/21/21 22/22/22 23/23/23 
f 22/22/22 24/24/24 23/23/23 
f 23/23/23 24/24/24 24/24/24 
f 24/24/24 22/22/22 24/24/24 
f 24/24/24 22/22/22 22/22/22 
f 22/22/22 25/25/25 22/22/22 
f 22/22/22 25/25/25 24/24/24 
f 25/25/25 26/26/26 24/24/24 
f 24/24/24 26/26/26 26/26/26 
f 26/26/26 27/27/27 26/26/26 
f 26/26/26 27/27/27 27/27/27 
f 27/27/27 28/28/28 27/27/27 
f 27/27/27 28/28/28 29/29/29 
f 28/28/28 30/30/30 29/29/29 
f 29/29/29 30/30/30 30/30/30 
f 30/30/30 28/28/28 30/30/30 
f 30/30/30 28/28/28 28/28/28 
f 28/28/28 31/31/31 28/28/28 
f 28/28/28 31/31/31 30/30/30 
f 31/31/31 32/32/32 30/30/30 
f 30/30/30 32/32/32 32/32/32 
f 32/32/32 33/33/33 32/32/32 
f 32/32/32 33/33/33 33/33/33 
f 33/33/33 34/34/34 33/33/33 
f 33/33/33 34/34/34 35/35/35 
f 34/34/34 36/36/36 35/35/35 
f 35/35/35 36/36/36 36/36/36 
f 36/36/36 34/34/34 36/36/36 
f 36/36/36 34/34/34 34/34/34 
f 34/34/34 37/37/37 34/34/34 
f 34/34/34 37/37/37 36/36/36 
f 37/37/37 38/38/38 36/36/36 
f 36/36/36 38/38/38 38/38/38 
f 38/38/38 39/39/39 38/38/38 
f 38/38/38 39/39/39 39/39/39 
f 39/39/39 40/40/40 39/39/39 
f 39/39/39 40/40/40 41/41/41 
f 40/40/40 42/42/42 41/41/41 
f 41/41/41 42/42/42 42/42/42 
f 42/42/42 40/40/40 42/42/42 
f 42/42/42 40/40/40 40/40/40 
f 40/40/40 43/43/43 40/40/40 
f 40/40/40 43/43/43 42/42/42 
f 43/43/43 44/44/44 42/42/42 
f 42/42/42 44/44/44 44/44/44 
f 44/44/44 45/45/45 44/44/44 
f 44/44/44 45/45/45 45/45/45 
f 45/45/45 46/46/46 45/45/45 
f 45/45/45 46/46/46 47/47/47 
f 46/46/46 48/48/48 47/47/47 
f 47/47/47 48/48/48 48/48/48 
f 48/48/48 49/49/49 48/48/48 
f 48/48/48 49/49/49 49/49/49 
f 49/49/49 50/50/50 49/49/49 
f 49/49/49 50/50/50 51/51/51 
f 50/50/50 52/52/52 51/51/51 
f 51/51/51 52/52/52 52/52/52 
f 52/52/52 53/53/53 52/52/52 
f 52/52/52 53/53/53 53/53/53 
f 53/53/53 54/54/54 53/53/53 
f 53/53/53 54/54/54 55/55/55 
f 54/54/54 56/56/56 55/55/55 
f 55/55/55 56/56/56 56/56/56 
f 56/56/56 57/57/57 56/56/56 
f 56/56/56 57/57/57 57/57/57 
f 57/57/57 58/58/58 57/57/57 
f 57/57/57 58/58/58 59/59/59 
f 58/58/58 60/60/60 59/59/59 
f 59/59/59 60/60/60 60/60/60 
f 60/60/60 61/61/61 60/60/60 
f 60/60/60 61/61/61 61/61/61 
f 61/61/61 62/62/62 61/61/61 
f 61/61/61 62/62/62 63/63/63 
f 62/62/62 64/64/64 63/63/63 
f 63/63/63 64/64/64 64/64/64 
f 64/64/64 65/65/65 64/64/64 
f 64/64/64 65/65/65 65/65/65 
f 65/65/65 66/66/66 65/65/65 
f 65/65/65 66/66/66 67/67/67 
f 66/66/66 68/68/68 67/67/67 
f 67/67/67 68/68/68 68/68/68 
f 68/68/68 69/69/69 68/68/68 
f 68/68/68 69/69/69 69/69/69 
f 69/69/69 70/70/70 69/69/69 
f 69/69/69 70/70/70 71/71/71 
f 70/70/70 72/72/72 71/71/71 
f 71/71/71 72/72/72 72/72/72 
f 72/72/72 73/73/73 72/72/72 
f 72/72/72 73/73/73 73/73/73 
f 73/73/73 74/74/74 73/73/73 
f 73/73/73 74/74/74 75/75/75 
f 74/74/74 76/76/76 75/75/75 
f 75/75/75 76/76/76 77/77/77 
f 76/76/76 78/78/78 77/77/77 
f 77/77/77 78/78/78 78/78/78 
f 78/78/78 79/79/79 78/78/78 
f 78/78/78 79/79/79 79/79/79 
f 79/79/79 80/80/80 79/79/79 
f 79/79/79 80/80/80 81/81/81 
f 80/80/80 82/82/82 81/81/81 
f 81/81/81 82/82/82 82/82/82 
f 82/82/82 83/83/83 82/82/82 
f 82/82/82 83/83/83 83/83/83 
f 83/83/83 84/84/84 83/83/83 
f 83/83/83 84/84/84 85/85/85 
f 84/84/84 86/86/86 85/85/85 
f 85/85/85 86/86/86 86/86/86 
f 86/86/86 87/87/87 86/86/86 
f 86/86/86 87/87/87 87/87/87 
f 87/87/87 88/88/88 87/87/87 
f 87/87/87 88/88/88 89/89/89 
f 88/88/88 90/90/90 89/89/89 
f 89/89/89 90/90/90 90/90/90 
f 90/90/90 91/91/91 90/90/90 
f 90/90/90 91/91/91 91/91/91 
f 91/91/91 92/92/92 91/91/91 
f 91/91/91 92/92/92 93/93/93 
f 92/92/92 94/94/94 93/93/93 
f 93/93/93 94/94/94 95/95/95 
f 94/94/94 96/96/96 95/95/95 
f 95/95/95 96/96/96 96/96/96 
f 96/96/96 97/97/97 96/96/96 
f 96/96/96 97/97/97 97/97/97 
f 97/97/97 98/98/98 97/97/97 
f 97/97/97 98/98/98 99/99/99 
f 98/98/98 100/100/100 99/99/99 
f 99/99/99 100/100/100 100/100/100 
f 100/100/100 101/101/101 100/100/100 
f 100/100/100 101/101/101 101/101/101 
f 101/101/101 102/102/102 101/101/101 
f 101/101/101 102/102/102 103/103/103 
f 102/102/102 104/104/104 103/103/103 
f 103/103/103 104/104/104 104/104/104 
f 104/104/104 105/105/105 104/104/104 
f 104/104/104 105/105/105 105/105/105 
f 105/105/105 106/106/106 105/105/105 
f 105/105/105 106/106/106 107/107/107 
f 106/106/106 108/108/108 107/107/107 
f 107/107/107 108/108/108 108/108/108 
f 108/108/108 109/109/109 108/108/108 
f 108/108/108 109/109/109 109/109/109 
f 109/109/109 110/110/110 109/109/109 
f 109/109/109 110/110/110 111/111/111 
f 110/110/110 112/112/112 111/111/111 
f 111/111/111 112/112/112 113/113/113 
f 112/112/112 113/113/113 113/113/113 
f 113/113/113 113/113/113 114/114/114 
f 113/113/113 114/114/114 114/114/114 
f 114/114/114 114/114/114 114/114/114 
f 114/114/114 115/115/115 114/114/114 
f 114/114/114 115/115/115 116/116/116 
f 115/115/115 117/117/117 116/116/116 
f 116/116/116 117/117/117 117/117/117 
f 117/117/117 118/118/118 117/117/117 
f 117/117/117 118/118/118 118/118/118 
f 118/118/118 119/119/119 118/118/118 
f 118/118/118 119/119/119 120/120/120 
f 119/119/119 121/121/121 120/120/120 
f 120/120/120 121/121/121 121/121/121 
f 121/121/121 122/122/122 121/121/121 
f 121/121/121 122/122/122 122/122/122 
f 122/122/122 123/123/123 122/122/122 
f 122/122/122 123/123/123 124/124/124 
f 123/123/123 125/125/125 124/124/124 
f 124/124/124 125/125/125 125/125/125 
f 125/125/125 126/126/126 125/125/125 
f 125/125/125 126/126/126 126/126/126 
f 126/126/126 127/127/127 126/126/126 
f 126/126/126 127/127/127 128/128/128 
f 127/127/127 129/129/129 128/128/128 
f 128/128/128 129/129/129 129/129/129 
f 129/129/129 130/130/130 129/129/129 
f 129/129/129 130/130/130 130/130/130 
f 130/130/130 131/131/131 130/130/130 
f 130/130/130 131/131/131 132/132/132 
f 131/131/131 133/133/133 132/132/132 
f 132/132/132 133/133/133 133/133/133 
f 133/133/133 134/134/134 133/133/133 
f 133/133/133 134/134/134 134/134/134 
f 134/134/134 135/135/135 134/134/134 
f 134/134/134 135/135/135 136/136/136 
f 135/135/135 137/137/137 136/136/136 
f 136/136/136 137/137/137 137/137/137 
f 137/137/137 138/138/138 137/137/137 
f 137/137/137 138/138/138 138/138/138 
f 138/138/138 139/139/139 138/138/138 
f 138/138/138 139/139/139 140/140/140 
f 139/139/139 141/141/141 140/140/140 
f 140/140/140 141/141/141 141/141/141 
f 141/141/141 142/142/142 141/141/141 
f 141/141/141 142/142/142 142/142/142 
f 142/142/142 143/143/143 142/142/142 
f 142/142/142 143/143/143 144/144/144 
f 143/143/143 145/145/145 144/144/144 
f 144/144/144 145/145/145 145/145/145 
f 145/145/145 146/146/146 145/145/145 
f 145/145/145 146/146/146 146/146/146 
f 146/146/146 147/147/147 146/146/146 
f 146/146/146 147/147/147 148/148/148 
f 147/147/147 149/149/149 148/148/148 
f 148/148/148 149/149/149 149/149/149 
f 149/149/149 150/150/150 149/149/149 
f 149/149/149 150/150/150 150/150/150 
f 150/150/150 151/151/151 150/150/150 
f 150/150/150 151/151/151 152/152/152 
f 151/151/151 153/153/153 152/152/152 
f 152/152/152 153/153/153 153/153/153 
f 153/153/153 154/154/154 153/153/153 
f 153/153/153 154/154/154 154/154/154 
f 154/154/154 155/155/155 154/154/154 
f 154/154/154 155/155/155 156/156/156 
f 155/155/155 157/157/157 156/156/156 
f 156/156/156 157/157/157 157/157/157 
f 157/157/157 158/158/158 157/157/157 
f 157/157/157 158/158/158 158/158/158 
f 158/158/158 159/159/159 158/158/158 
f 158/158/158 159/159/159 160/160/160 
f 159/159/159 161/161/161 160/160/160 
f 160/160/160 161/161/161 161/161/161 
f 161/161/161 162/162/162 161/161/161 
f 161/161/161 162/162/162 162/162/162 
f 162/162/162 163/163/163 162/162/162 
f 162/162/162 163/163/163 164/164/164 
f 163/163/163 165/165/165 164/164/164 
f 164/164/164 165/165/165 165/165/165 
f 165/165/165 166/166/166 165/165/165 
f 165/165/165 166/166/166 166/166/166 
f 166/166/166 167/167/167 166/166/166 
f 166/166/166 167/167/167 168/168/168 
f 167/167/167 169/169/169 168/168/168 
f 168/168/168 169/169/169 169/169/169 
f 169/169/169 170/170/170 169/169/169 
f 169/169/169 170/170/170 170/170/170 
f 170/170/170 171/171/171 170/170/170 
f 170/170/170 171/171/171 172/172/172 
f 171/171/171 173/173/173 172/172/172 
f 172/172/172 173/173/173 173/173/173 
f 173/173/173 174/174/174 173/173/173 
f 173/173/173 174/174/174 174/174/174 
f 174/174/174 175/175/175 174/174/174 
f 174/174/174 175/175/175 176/176/176 
f 175/175/175 177/177/177 176/176/176 
f 176/176/176 177/177/177 177/177/177 
f 177/177/177 178/178/178 177/177/177 
f 177/177/177 178/178/178 178/178/178 
f 178/178/178 179/179/179 178/178/178 
f 178/178/178 179/179/179 180/180/180 
f 179/179/179 181/181/181 180/180/180 
f 180/180/180 181/181/181 181/181/181 
f 181/181/181 182/182/182 181/181/181 
f 181/181/181 182/182/182 182/182/182 
f 182/182/182 183/183/183 182/182/182 
f 182/182/182 183/183/183 184/184/184 
f 183/183/183 185/185/185 184/184/184 
f 184/184/184 185/185/185 185/185/185 
f 185/185/185 186/186/186 185/185/185 
f 185/185/185 186/186/186 186/186/186 
f 186/186/186 187/187/187 186/186/186 
f 186/186/186 187/187/187 188/188/188 
f 187/187/187 189/189/189 188/188/188 
f 188/188/188 189/189/189 189/189/189 
f 189/189/189 190/190/190 189/189/189 
f 189/189/189 190/190/190 190/190/190 
f 190/190/190 191/191/191 190/190/190 
f 190/190/190 191/191/191 192/192/192 
f 191/191/191 193/193/193 192/192/192 
f 192/192/192 193/193/193 193/193/193 
f 193/193/193 194/194/194 193/193/193 
f 193/193/193 194/194/194 194/194/194 
f 194/194/194 195/195/195 194/194/194 
f 194/194/194 195/195/195 196/196/196 
f 195/195/195 197/197/197 196/196/196 
f 196/196/196 197/197/197 197/197/197 
f 197/197/197 198/198/198 197/197/197 
f 197/197/197 198/198/198 198/198/198 
f 198/198/198 199/199/199 198/198/198 
f 198/198/198 199/199/199 200/200/200 
f 199/199/199 201/201/201 200/200/200 
f 200/200/200 201/201/201 201/201/201 
f 201/201/201 202/202/202 201/201/201 
f 201/201/201 202/202/202 202/202/202 
f 202/202/202 203/203/203 202/202/202 
f 202/202/202 203/203/203 204/204/204 
f 203/203/203 205/205/205 204/204/204 
f 204/204/204 205/205/205 205/205/205 
f 205/205/205 206/206/206 205/205/205 
f 205/205/205 206/206/206 206/206/206 
f 206/206/206 207/207/207 206/206/206 
f 206/206/206 207/207/207 208/208/208 
f 207/207/207 209/209/209 208/208/208 
f 208/208/208 209/209/209 209/209/209 
f 209/209/209 210/210/210 209/209/209 
f 209/209/209 210/210/210 210/210/210 
f 210/210/210 211/211/211 210/210/210 
f 210/210/210 211/211/211 212/212/212 
f 211/211/211 213/213/213 212/212/212 
f 212/212/212 213/213/213 213/213/213 
f 213/213/213 214/214/214 213/213/213 
f 213/213/213 214/214/214 214/214/214 
f 214/214/214 215/215/215 214/214/214 
f 214/214/214 215/215/215 216/216/216 
f 215/215/215 217/217/217 216/216/216 
f 216/216/216 217/217/217 218/218/218 
f 14/14/14 219/219/219 16/16/16 
f 220/220/220 111/111/111 113/113/113 

